<?xml version="1.0" encoding="UTF-8"?>
<!DOCTYPE svg PUBLIC "-//W3C//DTD SVG 1.1//EN" "http://www.w3.org/Graphics/SVG/1.1/DTD/svg11.dtd">
<!-- Creator: CorelDRAW -->
<svg xmlns="http://www.w3.org/2000/svg" xml:space="preserve" width="1.70666in" height="1.70666in" version="1.1" style="shape-rendering:geometricPrecision; text-rendering:geometricPrecision; image-rendering:optimizeQuality; fill-rule:evenodd; clip-rule:evenodd"
viewBox="0 0 1706.66 1706.66"
 xmlns:xlink="http://www.w3.org/1999/xlink"
 xmlns:xodm="http://www.corel.com/coreldraw/odm/2003">
 <defs>
  <style type="text/css">
   <![CDATA[
    .fil3 {fill:#888888}
    .fil4 {fill:#AFAFB0}
    .fil2 {fill:#B3B3B3}
    .fil0 {fill:#C7C7C7}
    .fil1 {fill:gainsboro}
    .fil5 {fill:white}
   ]]>
  </style>
 </defs>
 <g id="Layer_x0020_1">
  <metadata id="CorelCorpID_0Corel-Layer"/>
  <path class="fil0" d="M598.85 1706.64l-116.22 0c-12.72,0 -22.26,-11.91 -19.52,-24.33l115.97 -522.74c4.71,-21.26 32.27,-19.04 38.41,-3.06l76.15 35.92c13.04,-8.2 35.04,1.45 30.65,21.23l-105.9 477.31c-2.04,9.16 -10.17,15.67 -19.54,15.67z"/>
  <path class="fil0" d="M1224.04 1706.64l-116.22 0c-9.37,0 -17.5,-6.53 -19.53,-15.68l-105.89 -477.31c-4.52,-20.41 19.09,-30.06 31.92,-20.36l74.6 -36.02c5.54,-16.68 33.9,-19.31 38.7,2.28l115.97 522.76c2.75,12.43 -6.83,24.33 -19.56,24.33z"/>
  <path class="fil1" d="M853.34 1251.1c-295.54,0 -535.98,-240.44 -535.98,-535.98 0,-295.54 240.44,-535.96 535.98,-535.96 295.54,0 535.98,240.44 535.98,535.96 0,295.53 -240.44,535.98 -535.98,535.98z"/>
  <path class="fil0" d="M853.34 1147.79c-238.56,0 -432.66,-194.11 -432.66,-432.67 0,-238.57 194.1,-432.67 432.66,-432.67 238.58,0 432.68,194.1 432.68,432.68 0,238.58 -194.1,432.67 -432.68,432.67z"/>
  <path class="fil2" d="M853.34 1013.64c-164.61,0 -298.53,-133.93 -298.53,-298.52 0,-164.6 133.92,-298.52 298.53,-298.52 164.61,0 298.52,133.92 298.52,298.53 0,164.61 -133.92,298.52 -298.52,298.52z"/>
  <path class="fil3" d="M853.34 853.7c-76.41,0 -138.58,-62.17 -138.58,-138.59 0,-76.41 62.17,-138.58 138.58,-138.58 76.41,0 138.59,62.17 138.59,138.58 0,76.43 -62.18,138.59 -138.59,138.59z"/>
  <path class="fil4" d="M853.34 521.24c-11.04,0 -20,-8.96 -20,-20l0 -481.22c0,-26.33 40,-26.33 40,0l0 481.22c0,11.05 -8.96,20 -20,20z"/>
  <path class="fil4" d="M853.34 1430.22c-11.04,0 -20,-8.97 -20,-20l0 -481.22c0,-26.33 40,-26.32 40,0l0 481.22c0,11.06 -8.96,20.01 -20,20.01z"/>
  <path class="fil4" d="M1548.44 735.12l-481.23 0c-26.33,0 -26.32,-40 0,-40l481.22 0c26.33,0 26.33,40 0.02,40z"/>
  <path class="fil4" d="M639.47 735.12l-481.23 0c-26.33,0 -26.33,-40 0,-40l481.23 0c26.33,0 26.33,40 0,40z"/>
  <path class="fil5" d="M853.34 776.01c-33.57,0 -60.89,-27.31 -60.89,-60.9 0,-33.57 27.31,-60.89 60.89,-60.89 33.57,0 60.9,27.31 60.9,60.89 0,33.58 -27.32,60.9 -60.9,60.9z"/>
 </g>
</svg>
