<?xml version="1.0" encoding="UTF-8"?>
<svg id="Layer_2" data-name="Layer 2" xmlns="http://www.w3.org/2000/svg" viewBox="0 0 323.58 479.14">
  <defs>
    <style>
      .cls-1 {
        fill: #fff;
      }

      .cls-2 {
        fill: #939598;
      }

      .cls-3 {
        fill: #ffc82c;
      }

      .cls-4 {
        fill: #8c8e91;
      }

      .cls-5 {
        fill: #808285;
      }

      .cls-6 {
        fill: none;
      }

      .cls-7 {
        fill: #231f20;
      }
    </style>
  </defs>
  <g id="Layer_2-2" data-name="Layer 2">
    <g>
      <path class="cls-1" d="m323.58,152.84c0-25.78-1.34-51.61-2.5-77.36-.43-9.47-.83-18.95-1.65-28.39-.8-9.29-.12-18.53-2.36-27.67-.79-3.25-3.04-6.28-5.12-9.13-.36-.58-.75-1.14-1.19-1.66-.22-.32-.44-.63-.65-.94-.13-.2-.33-.28-.52-.28-.88-.81-1.89-1.52-3.05-2.11-8.38-4.26-18.41-.55-27.26-1.56-.08-.04-.17-.07-.28-.07-.12,0-.24,0-.36-.01,0-.91.01-1.82.02-2.73,0-.25-.12-.42-.29-.51-.09-.06-.2-.11-.34-.12-4.12-.1-8.24-.2-12.36-.29-.36,0-.61.29-.63.63-.05.88-.08,1.75-.13,2.63-28.26-1.04-56.44,1.65-84.69,1.52-10.73-.05-21.46-.23-32.19-.32-34.08-.3-68.22-.48-102.28,1.05-11.56.52-23.48.87-34.83,3.35-1.7.37-3.01.82-4.05,1.39.03-.25.06-.5.09-.75.06-.48-.69-.47-.75,0-.06.42-.1.84-.15,1.26-2.2,1.61-2.84,4.09-3.42,8.23C1.04,30.56.86,42.38.54,54.03.08,70.8,0,87.58,0,104.35c.01,27.28.41,54.57.81,81.85.34,22.91-.51,45.88-.51,68.8,0,36.88.26,73.78,1.09,110.65.3,13.43.63,26.86,1.42,40.27.21,3.68.43,7.38.93,11.03.2,1.47.27,3.29,1.5,4.3,1.53,1.26,3.58,2.06,5.82,2.6,12.01,4.24,25.71,4.47,38.46,4.42.09,16.54,1.3,33.03,1.64,49.56,0,.26.19.55.46.61,3.92.76,8.08.67,12.06.69.35,0,.62-.29.63-.63.08-2.76.15-5.51.22-8.27.74-4.63.62-10.51.25-15.89.02-8.73-.18-17.46-.87-26.18,5.14-.06,10.27-.15,15.41-.24,25.1.45,50.21.32,75.31,0,36.01.4,72,.77,108.02,0-.02.39-.04.78-.06,1.18-.02.34.3.63.63.63h12.07c.35,0,.63-.29.63-.63,0-.5.01-1.01.02-1.51,3.15.18,6.26.23,9.37.21,1.07.04,2.15.05,3.22.03.8-.02,1.59-.08,2.38-.15.31-.01.62-.02.94-.03,5.41-.22,10.54.08,15.61-2.09,8-3.43,11.03-12.72,12.19-20.6.76-5.16.6-10.39.66-15.58.09-8.28.41-16.56.7-24.84.57-16.03,1.06-32.07,1.6-48.11.96-28.63.68-57.26.62-85.91-.05-25.89.36-51.78.36-77.67Z"/>
      <g>
        <g>
          <path class="cls-2" d="m264.16,404.81c.13-5.82.69-11.61.95-17.42.46-9.99-2.19-20.04.2-29.91.04-.16.1-.29.15-.43.82-17.3-.77-34.66-.41-51.98.19-9.11.67-18.27.28-27.39-.33-7.91-.82-15.78.55-23.61-1.79-16.75-.79-33.58-.31-50.38.24-8.44.1-16.77-.48-25.19-.46-6.67-.71-13.28.43-19.86-1.79-11.57-.26-24.13.27-35.66.51-11.14-2.68-22.42-1.02-33.47-1.84-13.53-.87-27.66-.57-41.27.3-13.34.82-26.67,1.44-40-11.98.29-24.85,3.09-36.08,3.78-20.5,1.25-41.71,1.31-62.01-2.34-27.86-5-58.4,1.81-86.61,1.16C56.19,10.3,12.15,3.69,8.93,38.37c-1.61,17.27.04,35.55.02,52.93-.03,29.92-.59,59.53,1.59,89.3,5.37,73.18-4.47,147.82,6.32,220.91,4.19,28.37,43.72,20.17,62.56,19.29,11.45-.54,22.17-.95,33.55-.95,28.97,0,57.96.31,86.9-1.13,22.04-1.1,43.06-4.14,64.55-4.25-.01-3.21-.33-6.44-.26-9.66Z"/>
          <path class="cls-2" d="m310.28,92.82c-.62-22.08.36-45.86-9.5-66.23-5.25-10.86-13.42-15.7-22.89-17.48-.69,13.65-.33,27.3-.23,40.96.05,7.04-.2,14.06-.24,21.09-.04,6.65.39,13.3-.21,19.93-.06.68-.29,1.24-.62,1.7.93,11.18-.38,22.51-.67,33.7-.08,2.89-.17,5.79-.27,8.68.24.45.37,1,.31,1.67-.68,7.74.06,15.41.1,23.15.03,7.45-.49,14.86-.25,22.32.38,12.1,2.07,24.8.71,36.93,1.33,12.58.72,25.22.69,37.85,0,1.52-.86,2.48-1.95,2.9-.04,4.31.9,8.72,1.26,12.94.57,6.65.49,13.42.56,20.09.15,14.94-.64,29.87-.61,44.82,0,.13-.03.23-.04.35-.1,14.36-.51,28.71-.76,43.07-.13,7.5-.46,15.06-.12,22.56.17,3.65.4,7.28.35,10.9,1.5.07,2.99.16,4.5.27,22.84,1.71,25.32-21.95,25.58-39.67.25-17.43.85-35.02,1.93-52.5.47-7.7,1.04-15.37,1.71-23,1.96-22.31-.04-45.48,1.4-68.17,2.93-46.23.57-92.57-.72-138.82Zm-2.66-27.73c-1.13-2.8-2.27-5.6-3.47-8.39,1.32,3.13,2.64,6.27,3.97,9.4-.17-.34-.33-.67-.5-1.01Z"/>
          <path class="cls-5" d="m285.49,143.29c.17-6.38.3-12.31-.84-18.64-1.15-6.35-.2-13.64-.2-20.08,0-15.34-1-30.57-1-45.89,0-7.13.58-14.51-.55-21.56-1.15-7.17-1.45-14.02-1.45-21.29,0-2.73-1.64-4.4-3.64-5.03-.58,13.08-.25,26.16-.15,39.25.05,7.04-.2,14.06-.24,21.09-.04,6.65.39,13.3-.21,19.93-.06.67-.3,1.23-.62,1.68.93,11.18-.37,22.52-.67,33.71-.08,2.89-.17,5.79-.27,8.68.24.45.37,1,.31,1.67-.68,7.74.06,15.41.1,23.15.03,7.45-.49,14.86-.25,22.32.38,12.1,2.07,24.8.71,36.93,1.33,12.58.72,25.22.69,37.85,0,1.52-.86,2.49-1.95,2.91-.04,4.31.9,8.72,1.26,12.94.57,6.65.49,13.42.56,20.09.15,14.94-.64,29.87-.61,44.82,0,.13-.03.23-.04.35-.1,14.36-.51,28.71-.76,43.07-.13,7.5-.46,15.06-.12,22.56.2,4.43.51,8.84.27,13.24,3.07.57,6.65-1.17,6.65-5.21,0-15.53.46-31.14-.06-46.66-.1-3.13-.84-6.2-.94-9.34-.12-3.51,0-7.04,0-10.55v-49.45c0-6.82,1-13.56,1-20.43,0-3.37,1.13-6.86,1.24-10.28.12-3.76-.2-7.54-.24-11.29-.09-7.93.56-15.88.86-23.8.28-7.39.14-14.8.14-22.2s-1.15-13.65-.2-20.79c.9-6.75.21-13.76.88-20.58.75-7.68.15-15.46.36-23.17Z"/>
          <path class="cls-4" d="m251.41,248.18c7.85-23.38,10.21-48.61-12.56-65.5-4.76-3.53-11.82-5.68-18.77-6.22,2.12-3.58,4.25-7.16,6.7-10.47,6.1-8.23,9.32-17.66,12.76-27.18,1.69-3.85,3.36-7.71,4.77-11.66,4.49-12.55,2.17-25.28-3.31-36.96-6.3-13.43-24.06-22.5-38.62-21.45-10.59.77-13.42,2.04-22.97,6.3-1.18.53-2.34,1.09-3.5,1.65-2.92,1.24-5.78,2.59-8.53,4.21-1.18-4.41-3.09-8.65-5.05-12.7-5.02-10.35-16.22-16.7-26.58-20.14-6.37-2.12-14.28-1.89-21.21-.54-8.59.21-13.76,2.34-21.7,5.97-6.37,2.92-11.8,7.95-16.74,12.87,2.73-2.11,5.46-4.22,8.2-6.33-13.46,10.38-27.09,22.13-36.74,36.38-3.62,4.69-6.65,9.61-7.87,15.82-2.17,10.99-1.72,21.3,4.08,31.21.86,1.47,1.83,2.88,2.86,4.22-1.94,3.33-3.84,6.69-5.73,10.08-4.48,8.02-9.69,14.97-13.78,22.84-1.44,1.99-2.75,4.07-3.76,6.23-1.63,3.49-3.88,8.02-4.81,12.18-2.12,9.47-1.59,14.22.13,23.77,1.78,9.89,10.24,19.3,18.61,24.2,11.44,6.7,29.62,8.37,40.88,0,2.59-1.92,5.07-3.93,7.49-5.99-6.43,10.51-12.73,20.95-17.42,32.39-.08.13-.15.27-.23.4-.88,1.13-1.77,2.26-2.63,3.41-4.95,6.63-5.15,15.08-6.15,22.82-1.62,12.5,8.61,29.91,20.06,34.97,10.07,4.45,10.12,4.52,21.06,5.8,4.36.51,8.93-.57,13.16-1.67,1.61-.42,3.21-.97,4.8-1.6.07,6.94,1.83,13.77,5.44,19.94,6.51,11.11,21.33,21.8,34.97,20.06,9.47-1.21,14.54-1.5,22.94-6.15,2.07-1.15,4.15-2.21,6.32-3.18l-3.46,1.46c6.53-2.89,12.73-6.07,19.02-9.7,6.19-3.57,11.71-8.13,17.17-12.74,1.41-.76,2.74-1.66,4.03-2.63,7.86-3.21,15.04-10.42,18.96-17.12,5.48-9.35,6.96-20.76,4.08-31.21-1.76-6.39-5.1-12.24-9.61-17.02,1.58-2.96,3.09-5.95,4.45-9.02,3.06-6.9,6.22-14.36,8.79-22.02Z"/>
          <path class="cls-5" d="m322.45,162.9c.01-2.11.05-4.23.17-6.32.21-3.79.44-7.51.18-11.26-.3-4.25-.27-8.51-.08-12.76.15-3.47-.27-6.93-.41-10.4-.06-1.6.13-3.23.07-4.81-.06-1.72-.4-3.45-.49-5.17-.1-1.96-.13-3.93-.25-5.9-.21-3.53-.12-7.06-.19-10.59-.08-3.63-.03-7.32-.35-10.94-.32-3.63-.5-7.17-.7-10.82-.07-1.3-.16-2.65-.04-3.96.07-.82.24-1.52.11-2.34-.4-2.54-.5-5.06-.8-7.61-.35-2.99-.79-5.87-.82-8.9-.03-2.99-.42-5.97-.51-8.95-.1-3.29-.05-6.54-.24-9.83-.08-1.39-.29-2.87-.52-4.25-.49-2.91-.7-6.02-1.48-8.86-.21-.78-1.12-3.21-2.07-3.29-.43,2.53.6,4.46,1.36,6.77.76,2.31,1.36,4.68,1.38,7.13.02,3.22.33,6.43.33,9.67,0,5.99,1.03,11.99,1.15,18,.13,6.67-.99,13.73.11,20.33.51,3.07.41,6.86.41,10s.47,6.18.33,9.33c-.13,3,.49,6.5.92,9.5.52,3.64.08,7.53.08,11.21,0,7.33-.44,14.59,0,21.96.35,5.71-.02,11.35.65,17.05-.57.4-.98,1.04-.98,1.95,0,20.98.33,41.96.33,63.01,0,5.21-.67,10.37-.67,15.59,0,3.07-.06,6.15.12,9.22.16,2.69.88,6.13.01,8.72-1.51,4.52-.46,10.89-.46,15.59s.22,9.58.3,14.37c-.9,1.87-.3,2.91-.3,4.87v9.29c0,2.18.19,4.31.38,6.43-.02.08-.04.15-.05.23-.57,4.54,0,8.83,0,13.33s-.48,9.64-1,14.33c-1.11,9.95-.38,20.05-1.67,30-1.19,9.2,1.85,18.29,1,27.33-.25,2.7-.08,5.46,0,8.22-.07.25-.15.51-.24.78-.5,1.42-.07,2.93-.67,4.42-.54,1.36-.14,2.74-.65,4.07-.4,1.03-.43,2.1-.43,3.18-.72,2.1-1.52,4.2-2.94,5.89-.34.41-.65.9-.95,1.41-2.72,1.01-5.39,2.33-8.12,3.4-1.89.74-5.37,1.79-7.17,1.79-3.58,0-6.5.83-10.16.24-2.97-.48-5.65.61-8.57.68-1.5.04-2.28.1-2.17,1.82,4.26.37,8.52.83,12.8.75,4.06-.08,7.94-1.12,11.96-1.57,3.49-.39,6.92-1.29,9.97-3.12,3.64-2.18,5-6.07,6.16-9.9.34-1.1.9-2.11,1.23-3.18.42-1.32.54-2.78.88-4.12.39-1.54.25-3.23.41-4.81.31-2.95.33-5.89.48-8.87.07-1.41-.1-2.84-.16-4.25-.07-1.49,0-2.96-.01-4.47,0-2.73-.12-5.48.05-8.2.15-2.4.23-4.98.21-7.4-.02-2.12.14-4.21.26-6.33.2-3.67.88-7.35.98-11.01.1-3.48.48-6.98.34-10.47-.1-2.52-.01-5.04.29-7.54.26-2.18.04-4.55.05-6.78,0-1.6.29-3.04.21-4.63-.18-3.45.04-6.99.03-10.46,0-4.17.17-8.34.17-12.52,0-3.32-.22-6.64.25-9.94.39-2.73.55-5.43.59-8.2.03-1.99-.13-3.95-.21-5.94-.1-2.18-.13-4.35-.12-6.53,0-2.18.15-4.51-.04-6.68-.31-3.59-.13-7.26-.12-10.87,0-3.26.14-6.52.14-9.77,0-1.21.31-2.25.38-3.42.09-1.6-.09-3.2.05-4.8.12-1.39-.02-2.9-.11-4.29-.19-2.95-.42-5.86-.39-8.82.03-2.88.03-5.75.02-8.62,0-2.94-.11-5.9-.08-8.84.03-2.7.19-5.35.55-8.01.38-2.87,0-6.02.1-8.93.09-2.86.07-5.73-.13-8.58-.23-3.23-.45-6.45-.45-9.68,0-1.12,0-2.24,0-3.36Z"/>
          <path class="cls-5" d="m259.13,425.24c1.06-1.39-3.81-.97-4.84-.9-2.1.13-4.61.05-6.65.52-4.68,1.08-9.34.81-14.06.81s-9.37-1.29-13.79-.41c-1.97.39-3.9.06-5.84.08-1.76.02-3.43.58-5.16.83-1.79.26-4.27-.17-5.72,1.09,1.67.52,4.07.2,5.79.03,1.9-.18,4.08-.19,5.95-.03,3.99.34,7.95.02,11.92,0,2.11-.01,4.24-.16,6.37-.16,2,0,4.2.32,6.12.13,2.05-.2,4.06-.19,6.13-.05.93.06,1.78.39,2.72.42.98.03,1.91-.08,2.9-.08,2.03,0,3.95-.2,5.97,0,.98.1,1.92-.05,2.88-.1,1.15-.05,4.52.24,3.64-2.03-.68-1.75-3.36-1.41-4.33-.14Z"/>
          <path class="cls-3" d="m276.22,347.15c0-6.42.21-12.81.22-19.32.04-22.43.41-44.84-.11-67.31-.44-19.04.03-37.96.03-57.01v-70.8c0-5.47,0-10.9-.27-16.36-.26-5.08,1.1-10.39,1.03-15.57-.21-15.14-.92-30.55-.18-45.68.86-17.44,1.91-35.03.92-52.49-3.1.65-5.11-2.33-8.26-1.52-1.63,15.78-1.65,32.18-1.46,48.05.06,5.37-.16,10.75-.16,16.12,0,10.66-.16,21.33.05,31.98.27,14-1.48,27.45-.83,41.64.73,16.16,1.74,32.32,1.73,48.51,0,25.48-.49,49.77-.5,75.19,0,20.27.18,40.42.18,60.58,0,7.35.22,14.65.55,22,.5,11.3-1.73,22.15-1.73,33.44,0,11.62.18,23.25.37,34.87.05,2.75-1.51,13.3.81,15.3,2.7,2.33,7.11-.68,7.11-3.8v-.63s-.01-.09-.01-.14c-.08-6.41-1.05-12.72-.72-19.13.17-3.39-.29-6.98.42-10.31.65-3.03.61-6.01.38-9.07-.27-3.67.44-7.34.57-11,.2-5.76.37-11.55.08-17.37-.17-3.42-.23-6.81-.23-10.18Z"/>
          <path class="cls-3" d="m62.79,432.16c-.2-2.67-.41-4.95-.55-4.94-6.64.64-7.62,1.43-7.59,8.05.03,5.21-.65,10.43-.66,15.68-.01,5.07-.14,10.09.37,15.14.39,3.92-1.88,11.82,3.56,12.48,11.33,1.37,5.92-32.47,5.43-38.16-.04-.5-.29-4.72-.56-8.26Z"/>
        </g>
        <g>
          <path class="cls-6" d="m3.58,167.29c.32,28.79,1.04,57.58,1.29,86.37.21,24.23-.56,48.44,0,72.67.72,31.55-.38,63.29,2.54,94.75.43.2.87.36,1.31.55,1.49.5,3.09.78,4.55,1.05,10.34,1.96,21.02,2.45,31.51,2.96,10.94.53,21.89.83,32.84,1.02,14.43-.24,28.84-.44,43.29-.31,11.34.1,22.68.23,34.01.36,13.68-.17,27.37-.41,41.05-.7,14.01-.3,28.02-.65,42.02-1.1,7.92-.25,16.01-.13,23.9-.93.06-.03.13-.05.2-.05.25-.02.5,0,.75,0,1.13-22.89,1.1-45.88,1.33-68.78.38-38.54.51-77.09.56-115.64.04-37.44,0-74.88-.2-112.33-.21-40.9-1.61-81.77.34-122.65-28.73-1.06-57.39,1.73-86.11,1.51-12.36-.1-24.72-.27-37.08-.36-34.04-.24-68.2-.51-102.21,1.42-10.13.57-21.86.37-31.52,3.91-.45.17-.85.41-1.22.69-2.72,21.99-2.85,44.42-3.18,66.53-.44,29.69-.29,59.39.04,89.08Z"/>
          <path class="cls-6" d="m4.56,349.23c-.23-24.86-.86-49.69-.61-74.57.19-18.62-.06-37.2-.37-55.82-.63-37.53-1.16-75.07-1.03-112.61.11-31.09-.46-62.83,3.33-93.77-3.33,3.82-2.7,12.77-2.99,16.89-3.81,53.73-.41,107.66-.78,161.44-.45,64.15-1.02,128.31.99,192.46.33,10.59.51,21.29,1.66,31.83.15,1.38.03,4.38,1.37,5.3.16.11.33.2.5.3-2.18-23.76-1.85-47.62-2.07-71.45Z"/>
          <path class="cls-6" d="m23.1,425.31c-1.01-.11-2.15-.2-3.35-.29,9.57,2.02,19.84,2.2,29.65,2.09-8.78-.35-17.57-.85-26.3-1.8Z"/>
          <path class="cls-6" d="m318.94,270.52c.23-34.72.63-69.44.99-104.16.3-29.09-.64-58.12-1.96-87.17-.56-12.42-1.09-24.85-1.79-37.26-.32-5.55-.51-11.2-1.02-16.79,0,2.05-.09,4.06-.2,5.92-1.23,21.82.56,43.82.9,65.66.21,13.47.3,26.95.38,40.43.23,39.65.26,79.31.11,118.96-.12,32.18-1.1,64.37-1.11,96.54,0,17.77.87,35.78-.98,53.49-.51,4.84-.7,10.62-4.88,13.83-1.15.89-2.38,1.63-3.65,2.26,3.07-.85,5.74-2.43,7.4-5.76,4.21-8.43,4.45-18.73,4.62-27.96.18-9.65-.29-19.3-.15-28.95.43-29.68,1.14-59.35,1.33-89.04Z"/>
          <path class="cls-6" d="m278.23,51.46c-.88,63.75-1.9,127.44-1.12,191.2.37,30.5.83,60.95.36,91.45-.46,29.95-1.19,59.9-1.5,89.86,4.39.08,9.11.39,13.78.28,1.81-.22,3.62-.44,5.41-.65,1.23-.14,2.49-.24,3.75-.35,1.51-.33,2.99-.75,4.41-1.32,5.69-2.25,8.17-5.29,9.09-11.02,2.82-17.68,1.69-36.16,1.61-54-.06-13.16.46-26.33.63-39.49.51-39.1.57-78.21.55-117.31-.02-33.47-.05-66.94-.53-100.41-.3-20.74-2.23-41.68-1.29-62.39.29-6.43,1.74-16.85-1.11-24.07-1.07-1.64-2.15-3.27-3.24-4.9-1.28-1.17-2.86-2.06-4.82-2.59-8.54-2.28-17.06.26-25.57-.84-.14,15.52-.19,31.03-.41,46.55Z"/>
          <path class="cls-6" d="m275.95,425.22c0,.06,0,.12,0,.18.92-.02,1.84-.06,2.77-.11-.94-.03-1.86-.05-2.77-.07Z"/>
          <path class="cls-6" d="m50.77,428.27c.04,9.54.37,19.06.82,28.58.22,4.54.45,9.08.61,13.62.07,1.96.14,3.93.18,5.9.03,1.6,3.02,1.26,3.96,1.31,1.9.09,3.81.17,5.72.19,1.82.02,1.1-3.6,1.14-5.06.13-4.87.27-9.75.33-14.62.11-10.01-.09-20.01-.88-29.99-2.58.03-5.15.05-7.73.06-1.36,0-2.75.01-4.14.02Z"/>
          <path class="cls-6" d="m321.25,110.85c-.64-17.9-1.31-35.8-2.35-53.68-.47-8.11-.79-16.22-1.24-24.33-.28-5-.49-10.47-2.65-15.07.04.3.1.6.14.9,2.67,21.93,2.81,44.26,3.84,66.31,1.38,29.5,2.12,59.01,1.59,88.55-.61,33.94-.69,67.88-.92,101.82-.12,18.27-.25,36.53-.53,54.79-.19,12.74-.92,25.5-.72,38.24.16,10.41.55,20.91-.5,31.29-.67,6.63-1.45,15.43-6.42,20.48-2.39,2.43-5.96,3.18-9.51,3.55-5.14,1.61-10.86,1.85-16.44,1.77-3.2.34-6.41.6-9.6.67,0,.06,0,.12,0,.19,7.92.45,16.17.62,24.06-.18,8.14-.83,14.07-5.78,16.6-13.56,2.46-7.59,2.32-15.34,2.43-23.22.15-10.2.57-20.4.9-30.6,1.24-38.82,2.22-77.53,2.06-116.38-.17-43.87.83-87.69-.75-131.54Z"/>
          <path class="cls-6" d="m274.81,413.4c.21-15.93.53-31.86.83-47.79,1.21-62.65-.2-125.21-.19-187.86,0-58.74,1.36-117.47,1.95-176.21-3.63-.09-7.26-.17-10.89-.26-1.22-.03-.32,1.66-.38,2.88-.12,2.39-.23,4.77-.33,7.16-.2,4.88-.38,9.77-.51,14.65-.54,20.12-.06,40.17.19,60.29.84,69.89.67,139.81.36,209.71-.15,34.5-.33,69-1.04,103.5-.12,5.77-.25,11.54-.44,17.31-.08,2.36-.16,4.72-.26,7.08-.06,1.38.23,4.62-.79,4.62h9.9c2.82,0,1.44-.48,1.47-3.32.04-3.92.08-7.84.13-11.76Z"/>
          <path class="cls-6" d="m262.27,425.16s-.06.02-.09.03c-11.9,1.24-24.13.98-36.08,1.31-8,.23-16.01.41-24.01.59,20.2.09,40.41.01,60.61-.43.03-.5.05-1.01.08-1.51-.17,0-.34,0-.5,0Z"/>
          <path class="cls-7" d="m323.58,152.84c0-25.78-1.34-51.61-2.5-77.36-.43-9.47-.83-18.95-1.65-28.39-.8-9.29-.12-18.53-2.36-27.67-.79-3.25-3.04-6.28-5.12-9.13-.36-.58-.75-1.14-1.19-1.66-.22-.32-.44-.63-.65-.94-.13-.2-.33-.28-.52-.28-.88-.81-1.89-1.52-3.05-2.11-8.38-4.26-18.41-.55-27.26-1.56-.08-.04-.17-.07-.28-.07-.12,0-.24,0-.36-.01,0-.91.01-1.82.02-2.73,0-.25-.12-.42-.29-.51-.09-.06-.2-.11-.34-.12-4.12-.1-8.24-.2-12.36-.29-.36,0-.61.29-.63.63-.05.88-.08,1.75-.13,2.63-28.26-1.04-56.44,1.65-84.69,1.52-10.73-.05-21.46-.23-32.19-.32-34.08-.3-68.22-.48-102.28,1.05-11.56.52-23.48.87-34.83,3.35-1.7.37-3.01.82-4.05,1.39.03-.25.06-.5.09-.75.06-.48-.69-.47-.75,0-.06.42-.1.84-.15,1.26-2.2,1.61-2.84,4.09-3.42,8.23C1.04,30.56.86,42.38.54,54.03.08,70.8,0,87.58,0,104.35c.01,27.28.41,54.57.81,81.85.34,22.91-.51,45.88-.51,68.8,0,36.88.26,73.78,1.09,110.65.3,13.43.63,26.86,1.42,40.27.21,3.68.43,7.38.93,11.03.2,1.47.27,3.29,1.5,4.3,1.53,1.26,3.58,2.06,5.82,2.6,12.01,4.24,25.71,4.47,38.46,4.42.09,16.54,1.3,33.03,1.64,49.56,0,.26.19.55.46.61,3.92.76,8.08.67,12.06.69.35,0,.62-.29.63-.63.47-16.79.92-33.57-.4-50.34,5.14-.06,10.27-.15,15.41-.24,25.1.45,50.21.32,75.31,0,36.01.4,72,.77,108.02,0-.02.39-.04.78-.06,1.18-.02.34.3.63.63.63h12.07c.35,0,.63-.29.63-.63,0-.5.01-1.01.02-1.51,5.34.3,10.56.27,15.92.05,5.41-.22,10.54.08,15.61-2.09,8-3.43,11.03-12.72,12.19-20.6.76-5.16.6-10.39.66-15.58.09-8.28.41-16.56.7-24.84.57-16.03,1.06-32.07,1.6-48.11.96-28.63.68-57.26.62-85.91-.05-25.89.36-51.78.36-77.67Zm-5.82,235.66c-.17,9.23-.41,19.54-4.62,27.96-1.66,3.33-4.33,4.91-7.4,5.76,1.28-.63,2.5-1.38,3.65-2.26,4.18-3.21,4.37-8.99,4.88-13.83,1.85-17.71.98-35.71.98-53.49,0-32.17.98-64.37,1.11-96.54.15-39.65.12-79.31-.11-118.96-.08-13.48-.17-26.95-.38-40.43-.34-21.85-2.13-43.84-.9-65.66.1-1.86.19-3.87.2-5.92.5,5.59.7,11.24,1.02,16.79.7,12.42,1.23,24.84,1.79,37.26,1.32,29.06,2.26,58.08,1.96,87.17-.36,34.72-.76,69.44-.99,104.16-.19,29.69-.9,59.36-1.33,89.04-.14,9.65.33,19.3.15,28.95ZM304.21,5.76c1.96.52,3.55,1.42,4.82,2.59,1.09,1.63,2.17,3.26,3.24,4.9,2.85,7.22,1.4,17.64,1.11,24.07-.95,20.71.99,41.65,1.29,62.39.48,33.47.5,66.94.53,100.41.03,39.1-.04,78.21-.55,117.31-.17,13.16-.69,26.33-.63,39.49.08,17.84,1.21,36.32-1.61,54-.91,5.73-3.4,8.78-9.09,11.02-1.42.56-2.9.98-4.41,1.32-1.26.11-2.53.2-3.75.35-1.8.21-3.6.43-5.41.65-4.67.11-9.39-.19-13.78-.28.31-29.96,1.04-59.9,1.5-89.86.47-30.5.01-60.96-.36-91.45-.78-63.76.24-127.45,1.12-191.2.21-15.51.27-31.03.41-46.55,8.52,1.1,17.03-1.44,25.57.84Zm-28.26,419.46c.91.02,1.83.04,2.77.07-.92.05-1.85.09-2.77.11,0-.06,0-.12,0-.18ZM7.94,10.99c9.67-3.55,21.39-3.34,31.52-3.91,34-1.93,68.16-1.66,102.21-1.42,12.36.09,24.72.27,37.08.36,28.73.22,57.38-2.56,86.11-1.51-1.95,40.88-.55,81.75-.34,122.65.19,37.44.24,74.88.2,112.33-.04,38.55-.17,77.09-.56,115.64-.23,22.9-.19,45.89-1.33,68.78-.25,0-.5-.01-.75,0-.07,0-.14.03-.2.05-7.89.8-15.98.68-23.9.93-14,.45-28.01.8-42.02,1.1-13.68.29-27.36.53-41.05.7-11.34-.13-22.67-.26-34.01-.36-14.45-.13-28.86.07-43.29.31-10.95-.19-21.9-.49-32.84-1.02-10.49-.51-21.16-1-31.51-2.96-1.46-.28-3.06-.56-4.55-1.05-.44-.18-.88-.35-1.31-.55-2.93-31.46-1.82-63.2-2.54-94.75-.55-24.23.21-48.44,0-72.67-.25-28.79-.97-57.58-1.29-86.37-.33-29.69-.48-59.39-.04-89.08.33-22.12.46-44.54,3.18-66.53.37-.28.77-.52,1.22-.69Zm-3.18,404.09c-1.15-10.55-1.32-21.24-1.66-31.83-2.01-64.14-1.44-128.3-.99-192.46.38-53.78-3.03-107.72.78-161.44.29-4.12-.34-13.07,2.99-16.89-3.79,30.94-3.22,62.68-3.33,93.77-.13,37.54.4,75.08,1.03,112.61.31,18.62.56,37.2.37,55.82-.25,24.87.37,49.7.61,74.57.22,23.83-.11,47.7,2.07,71.45-.17-.1-.34-.19-.5-.3-1.34-.92-1.22-3.92-1.37-5.3Zm14.99,9.94c1.2.09,2.34.18,3.35.29,8.73.94,17.52,1.45,26.3,1.8-9.81.12-20.08-.07-29.65-2.09Zm43.77,33.16c-.05,4.88-.19,9.75-.33,14.62-.04,1.46.68,5.08-1.14,5.06-1.91-.02-3.81-.1-5.72-.19-.94-.05-3.93.3-3.96-1.31-.04-1.97-.11-3.93-.18-5.9-.16-4.54-.39-9.08-.61-13.62-.45-9.52-.78-19.05-.82-28.58,1.39,0,2.77-.02,4.14-.02,2.58,0,5.15-.03,7.73-.06.79,9.98,1,19.98.88,29.99Zm138.57-31.09c8-.18,16.01-.37,24.01-.59,11.94-.34,24.18-.08,36.08-1.31.03,0,.06-.02.09-.03.17,0,.34,0,.5,0-.03.5-.05,1.01-.08,1.51-20.21.44-40.41.51-60.61.43Zm71.12,1.38h-9.9c1.03,0,.74-3.24.79-4.62.1-2.36.18-4.72.26-7.08.19-5.77.32-11.54.44-17.31.71-34.49.88-69,1.04-103.5.31-69.9.48-139.82-.36-209.71-.24-20.12-.73-40.17-.19-60.29.13-4.88.31-9.77.51-14.65.1-2.39.21-4.77.33-7.16.06-1.22-.84-2.91.38-2.88,3.63.09,7.26.17,10.89.26-.59,58.74-1.94,117.46-1.95,176.21,0,62.65,1.4,125.21.19,187.86-.31,15.93-.62,31.86-.83,47.79-.05,3.92-.1,7.84-.13,11.76-.03,2.84,1.35,3.32-1.47,3.32Zm48.79-186.08c.15,38.84-.82,77.55-2.06,116.38-.33,10.2-.75,20.39-.9,30.6-.11,7.88.03,15.63-2.43,23.22-2.53,7.78-8.45,12.73-16.6,13.56-7.89.81-16.14.64-24.06.18,0-.06,0-.12,0-.19,3.19-.07,6.4-.33,9.6-.67,5.58.09,11.3-.16,16.44-1.77,3.56-.37,7.12-1.12,9.51-3.55,4.96-5.05,5.75-13.85,6.42-20.48,1.04-10.38.65-20.88.5-31.29-.19-12.74.53-25.5.72-38.24.28-18.26.4-36.53.53-54.79.23-33.94.31-67.88.92-101.82.53-29.54-.21-59.05-1.59-88.55-1.03-22.05-1.18-44.38-3.84-66.31-.04-.3-.09-.6-.14-.9,2.16,4.6,2.37,10.07,2.65,15.07.45,8.11.77,16.22,1.24,24.33,1.04,17.88,1.71,35.78,2.35,53.68,1.57,43.85.57,87.67.75,131.54Z"/>
        </g>
      </g>
    </g>
  </g>
</svg>